<svg id="icons" enable-background="new 0 0 64 64" height="512" viewBox="0 0 64 64" width="512" xmlns="http://www.w3.org/2000/svg"><path d="m41.999 6.499c4.42 0 8 3.58 8 8s-3.58 8-8 8h-21.5c-3.58 0-6.5-2.91-6.5-6.5s2.92-6.5 6.5-6.5h.69c.939-5.12 5.42-9 10.81-9 4.28 0 7.99 2.439 9.8 6.01l.01-.01z" fill="#e6e9ed"/><path d="m49.999 18.499c0 4.42-3.58 8-8 8h-21.5c-3.58 0-6.5-2.91-6.5-6.5v-4c0 3.59 2.92 6.5 6.5 6.5h21.5c4.42 0 8-3.58 8-8z" fill="#ccd1d9"/><path d="m19.009 32.499v21h-2.95-.05v-19c0-1.1.9-2 2-2z" fill="#aab2bd"/><path d="m36.5 57.499 1 5h-11.001l1-5z" fill="#ccd1d9"/><path d="m48.009 53.499v2c0 1.1-.899 2-2 2h-10-8-10c-1.1 0-2-.9-2-2v-2h.05 2.95z" fill="#e6e9ed"/><path d="m19.009 32.499h27c1.101 0 2 .9 2 2v19h-29z" fill="#656d78"/><path d="m46.004 58.501h-27.998c-1.654 0-3-1.346-3-3v-20.998c0-1.654 1.346-3 3-3h27.998c1.654 0 3 1.346 3 3v20.998c0 1.654-1.346 3-3 3zm-27.998-24.998c-.552 0-1 .448-1 1v20.998c0 .552.448 1 1 1h27.998c.552 0 1-.448 1-1v-20.998c0-.552-.448-1-1-1z" fill="#e6e9ed"/><path d="m39.004 63.501h-14c-.553 0-1-.447-1-1s.447-1 1-1h14c.553 0 1 .447 1 1s-.447 1-1 1z" fill="#e6e9ed"/><path d="m24.998 37.001h-3c-.553 0-1-.447-1-1s.447-1 1-1h3c.553 0 1 .447 1 1s-.447 1-1 1z" fill="#a0d468"/><path d="m24.998 52.005h-3c-.553 0-1-.447-1-1s.447-1 1-1h3c.553 0 1 .447 1 1s-.447 1-1 1z" fill="#a0d468"/><path d="m30.002 49.005h-7.004c-.553 0-1-.447-1-1s.447-1 1-1h7.004c.553 0 1 .447 1 1s-.447 1-1 1z" fill="#5d9cec"/><path d="m38.01 43.001h-14.01c-.553 0-1-.447-1-1s.447-1 1-1h14.01c.553 0 1 .447 1 1s-.447 1-1 1z" fill="#ac92ec"/><path d="m43.016 46.005h-19.016c-.553 0-1-.447-1-1s.447-1 1-1h19.016c.553 0 1 .447 1 1s-.448 1-1 1z" fill="#ffce54"/><path d="m34.006 40.001h-11.008c-.553 0-1-.447-1-1s.447-1 1-1h11.008c.553 0 1 .447 1 1s-.447 1-1 1z" fill="#5d9cec"/><g fill="#656d78"><path d="m60.996 45.505h-8.996c-.553 0-1-.447-1-1s.447-1 1-1h8.996c.553 0 1 .447 1 1s-.447 1-1 1z"/><path d="m60.996 45.505c-.553 0-1-.447-1-1v-28.004c0-.553.447-1 1-1s1 .447 1 1v28.004c0 .553-.447 1-1 1z"/><path d="m60.996 17.501h-6.996c-.553 0-1-.447-1-1s.447-1 1-1h6.996c.553 0 1 .447 1 1s-.447 1-1 1z"/><path d="m56 19.503c-.256 0-.512-.098-.707-.293l-2-2.002c-.391-.391-.391-1.024 0-1.414.391-.391 1.023-.391 1.414 0l2 2.002c.391.391.391 1.024 0 1.414-.195.195-.451.293-.707.293z"/><path d="m54 17.501c-.256 0-.512-.098-.707-.293-.391-.39-.391-1.023 0-1.414l2-2.002c.391-.391 1.023-.391 1.414 0 .391.39.391 1.023 0 1.414l-2 2.002c-.195.195-.451.293-.707.293z"/><path d="m12 45.505h-8.996c-.553 0-1-.447-1-1s.447-1 1-1h8.996c.553 0 1 .447 1 1s-.447 1-1 1z"/><path d="m3.004 45.505c-.553 0-1-.447-1-1v-28.004c0-.553.447-1 1-1s1 .447 1 1v28.004c0 .553-.447 1-1 1z"/><path d="m10 17.501h-6.996c-.553 0-1-.447-1-1s.447-1 1-1h6.996c.553 0 1 .447 1 1s-.447 1-1 1z"/><path d="m10.002 47.53c-.256 0-.512-.098-.707-.293-.391-.39-.391-1.023 0-1.414l2-2.002c.391-.391 1.023-.391 1.414 0 .391.39.391 1.023 0 1.414l-2 2.002c-.195.196-.451.293-.707.293z"/><path d="m12.002 45.528c-.256 0-.512-.098-.707-.293l-2-2.002c-.391-.391-.391-1.024 0-1.414.391-.391 1.023-.391 1.414 0l2 2.002c.391.391.391 1.024 0 1.414-.195.196-.451.293-.707.293z"/></g><path d="m32.034 57.001c-.553 0-1.005-.447-1.005-1s.442-1 .994-1h.011c.552 0 1 .447 1 1s-.448 1-1 1z" fill="#ccd1d9"/></svg>